<svg width="27" height="34" viewBox="0 0 27 34" fill="none" xmlns="http://www.w3.org/2000/svg">
<path d="M7.85122e-09 3.375C7.85122e-09 2.47989 0.355579 1.62145 0.988514 0.988514C1.62145 0.355579 2.47989 0 3.375 0H23.625C24.5201 0 25.3785 0.355579 26.0115 0.988514C26.6444 1.62145 27 2.47989 27 3.375V32.0625C27 32.3725 26.9146 32.6766 26.7532 32.9413C26.5918 33.206 26.3606 33.4211 26.085 33.563C25.8093 33.7049 25.4999 33.7681 25.1907 33.7458C24.8815 33.7234 24.5844 33.6162 24.3321 33.4361L13.5 25.6989L2.66794 33.4361C2.4156 33.6162 2.11853 33.7234 1.80931 33.7458C1.50009 33.7681 1.19068 33.7049 0.915039 33.563C0.6394 33.4211 0.408183 33.206 0.246766 32.9413C0.0853487 32.6766 -2.98933e-05 32.3725 7.85122e-09 32.0625V3.375ZM23.625 3.375H3.375V28.7837L12.5196 22.2531C12.8057 22.0488 13.1485 21.939 13.5 21.939C13.8515 21.939 14.1943 22.0488 14.4804 22.2531L23.625 28.782V3.375Z" fill="#C8FAB6"/>
</svg>
