<svg width="30" height="30" viewBox="0 0 30 30" fill="none" xmlns="http://www.w3.org/2000/svg">
<path d="M23.0906 0H29.5038V6.41318L16.751 19.1659C16.8821 19.7246 16.9573 20.3661 16.9573 21.0251C16.9573 25.7077 13.1613 29.5038 8.47868 29.5038C3.79605 29.5038 0 25.7078 0 21.0251C0 16.3425 3.79602 12.5465 8.47865 12.5465C9.1377 12.5465 9.77912 12.6216 10.3949 12.7639L10.3378 12.7528L23.0906 0ZM27.5329 1.97087H23.9079L10.912 14.9615L10.3483 14.792C9.78842 14.6176 9.14473 14.5172 8.47755 14.5172C4.88561 14.5172 1.97369 17.429 1.97369 21.021C1.97369 24.613 4.88556 27.5249 8.47755 27.5249C12.0695 27.5249 14.9814 24.613 14.9814 21.021C14.9814 20.3538 14.8809 19.7101 14.6943 19.1042L14.7066 19.1503L14.5371 18.5866L27.5329 5.59596L27.5329 1.97087ZM7.19358 20.0765C8.4272 20.0765 9.42724 21.0766 9.42724 22.3102C9.42724 23.5438 8.4272 24.5439 7.19358 24.5439C5.95997 24.5439 4.95993 23.5438 4.95993 22.3102C4.95993 21.0766 5.95997 20.0765 7.19358 20.0765ZM7.19358 22.573C7.3387 22.573 7.45637 22.4553 7.45637 22.3102C7.45637 22.165 7.33873 22.0474 7.19358 22.0474C7.04847 22.0474 6.9308 22.165 6.9308 22.3102C6.9308 22.4553 7.04844 22.573 7.19358 22.573ZM19.6784 14.8498L17.7863 12.9709L19.1738 11.5729L21.0659 13.4544L19.6784 14.8498ZM22.8028 10.4587L21.5546 9.21049L22.9473 7.81778L24.1956 9.06597L22.8028 10.4587Z" fill="#C8FAB6"/>
</svg>
