<svg width="126" height="127" viewBox="0 0 126 127" fill="none" xmlns="http://www.w3.org/2000/svg">
<path d="M35.9089 127H19.3903C15.8567 127 13.611 124.201 14.4092 120.756L15.2022 117.189H26.2234C29.7677 117.189 33.3332 114.369 34.1102 110.935L39.7725 86.6352C40.5707 83.2062 44.115 80.391 47.6486 80.391H52.3476C72.5116 80.391 88.184 76.2688 99.3915 68.0085C110.599 59.7482 116.208 48.9585 116.208 35.5441C116.208 29.591 115.17 24.6697 113.079 20.7857C113.079 20.701 112.994 20.6216 112.994 20.5422L113.712 20.9391C117.703 23.3997 120.737 26.5695 122.818 30.5382C124.968 34.507 126 39.4282 126 45.3073C126 58.7216 120.418 69.5113 109.162 77.7716C97.9866 85.9472 82.2609 90.0695 62.1502 90.0695H57.3607C53.8484 90.0695 50.2615 92.8476 49.4633 96.3454L43.7957 120.714C43.0027 124.127 39.4851 126.905 35.9728 126.905L35.9089 127ZM21.6627 112.739H5.13882C1.61053 112.739 -0.629905 109.94 0.157707 106.495L23.4295 6.25475C24.2331 2.79929 27.7667 0 31.311 0H65.7158C73.1395 0 79.6001 0.518583 85.1293 1.52929C90.6373 2.52942 95.347 4.27567 99.4128 6.76804C103.33 9.22867 106.448 12.4407 108.444 16.3883C110.514 20.3465 111.552 25.2783 111.552 31.1891C111.552 44.6035 105.958 55.3932 94.7137 63.5688C83.5381 71.8291 67.8072 75.8772 47.6912 75.8772H42.9921C39.4798 75.8772 35.9249 78.65 35.1266 82.0632L29.4803 106.347C28.6874 109.765 25.1325 112.548 21.5776 112.548L21.6627 112.739ZM61.2881 20.828H55.8919C52.3476 20.828 48.8034 23.6273 48.0158 27.0616L43.0666 48.3341C42.2683 51.7631 44.5035 54.573 48.0158 54.573H52.0922C60.9475 54.573 67.8977 52.7579 72.8468 49.1702C77.7907 45.5401 80.2706 40.4178 80.2706 33.7608C80.2706 29.3688 78.6688 26.1144 75.4811 24.0242C72.2881 21.8863 67.4985 20.8227 61.187 20.8227L61.2881 20.828Z" fill="url(#paint0_linear_13_48)"/>
<defs>
<linearGradient id="paint0_linear_13_48" x1="0" y1="0" x2="101" y2="127" gradientUnits="userSpaceOnUse">
<stop stop-color="#72816B"/>
<stop offset="1" stop-color="#71FF65"/>
</linearGradient>
</defs>
</svg>
