<svg width="81" height="81" viewBox="0 0 81 81" fill="none" xmlns="http://www.w3.org/2000/svg">
<path d="M40.5 3C19.7893 3 3 19.7893 3 40.5C3 61.2105 19.7893 78 40.5 78C61.2105 78 78 61.2105 78 40.5C78 19.7893 61.2105 3 40.5 3Z" stroke="#FEFEFE" stroke-width="6" stroke-linecap="round" stroke-linejoin="round"/>
<path d="M11.5162 64.2964C11.5162 64.2964 19.8751 53.625 40.5 53.625C61.125 53.625 69.4841 64.2964 69.4841 64.2964" stroke="#FEFEFE" stroke-width="6" stroke-linecap="round" stroke-linejoin="round"/>
<path d="M40.5 40.5C46.7134 40.5 51.75 35.4634 51.75 29.25C51.75 23.0368 46.7134 18 40.5 18C34.2866 18 29.25 23.0368 29.25 29.25C29.25 35.4634 34.2866 40.5 40.5 40.5Z" stroke="#FEFEFE" stroke-width="6" stroke-linecap="round" stroke-linejoin="round"/>
</svg>
