<svg width="43" height="43" viewBox="0 0 43 43" fill="none" xmlns="http://www.w3.org/2000/svg">
<path d="M27.2779 21.5H28.8667C29.5847 21.5 30.1667 22.082 30.1667 22.8V31.0333C30.1667 31.7514 29.5847 32.3333 28.8667 32.3333H14.1334C13.4154 32.3333 12.8334 31.7514 12.8334 31.0333V22.8C12.8334 22.082 13.4154 21.5 14.1334 21.5H15.7223M27.2779 21.5V16.0833C27.2779 14.2778 26.1222 10.6667 21.5 10.6667C16.8778 10.6667 15.7223 14.2778 15.7223 16.0833V21.5M27.2779 21.5H15.7223" stroke="#FEFEFE" stroke-width="3.5" stroke-linecap="round" stroke-linejoin="round"/>
<path d="M2 36.6667V6.33333C2 3.9401 3.9401 2 6.33333 2H36.6667C39.06 2 41 3.9401 41 6.33333V36.6667C41 39.06 39.06 41 36.6667 41H6.33333C3.9401 41 2 39.06 2 36.6667Z" stroke="#FEFEFE" stroke-width="3.5"/>
</svg>
